HIERARCHY
ROOT Hips
{
	OFFSET 0.000000 0.000000 0.000000
	CHANNELS 6 Xposition Yposition Zposition Zrotation Yrotation Xrotation 
	JOINT LeftUpLeg_virtual
	{
		OFFSET 0.000000 0.000000 0.000000
		CHANNELS 3 Zrotation Yrotation Xrotation
		JOINT LeftUpLeg
		{
			OFFSET 10.205400 -3.823500 0.155100
			CHANNELS 3 Zrotation Yrotation Xrotation
			JOINT LeftLeg
			{
				OFFSET 0.708757 -12.982077 0.567790
				CHANNELS 3 Zrotation Yrotation Xrotation
				JOINT LeftFoot
				{
					OFFSET -0.708756 -10.717838 -2.184338
					CHANNELS 3 Zrotation Yrotation Xrotation
					JOINT LeftToeBase
					{
						OFFSET 0.108149 -7.191104 7.560241
						CHANNELS 3 Zrotation Yrotation Xrotation
						End Site
						{
							OFFSET 0.000000 0.000000 0.000000
						}
					}
				}
			}
		}
	}
	JOINT RightUpLeg_virtual
	{
		OFFSET 0.000000 0.000000 0.000000
		CHANNELS 3 Zrotation Yrotation Xrotation
		JOINT RightUpLeg
		{
			OFFSET -10.205400 -3.823500 0.005500
			CHANNELS 3 Zrotation Yrotation Xrotation
			JOINT RightLeg
			{
				OFFSET -0.708756 -12.982134 0.610632
				CHANNELS 3 Zrotation Yrotation Xrotation
				JOINT RightFoot
				{
					OFFSET 0.708754 -10.717769 -1.945823
					CHANNELS 3 Zrotation Yrotation Xrotation
					JOINT RightToeBase
					{
						OFFSET -0.108140 -7.191069 7.372968
						CHANNELS 3 Zrotation Yrotation Xrotation
						End Site
						{
							OFFSET 0.000000 0.000000 0.000000
						}
					}
				}
			}
		}
	}
	JOINT Spine_virtual
	{
		OFFSET 0.000000 0.000000 0.000000
		CHANNELS 3 Zrotation Yrotation Xrotation
		JOINT Spine
		{
			OFFSET 0.000000 6.876099 0.125700
			CHANNELS 3 Zrotation Yrotation Xrotation
			JOINT Spine1
			{
				OFFSET 0.000000 8.022060 0.146608
				CHANNELS 3 Zrotation Yrotation Xrotation
				JOINT Spine2
				{
					OFFSET 0.000000 9.168068 0.167552
					CHANNELS 3 Zrotation Yrotation Xrotation
					JOINT Neck_virtual
					{
						OFFSET 0.000000 0.000000 0.000000
						CHANNELS 3 Zrotation Yrotation Xrotation
						JOINT Neck
						{
							OFFSET 0.000000 10.314075 0.188496
							CHANNELS 3 Zrotation Yrotation Xrotation
							JOINT Head
							{
								OFFSET 0.000000 7.643700 -2.377400
								CHANNELS 3 Zrotation Yrotation Xrotation
								End Site
								{
									OFFSET 0.000000 0.000000 0.000000
								}
							}
						}
					}
					JOINT LeftShoulder_virtual
					{
						OFFSET 0.000000 0.000000 0.000000
						CHANNELS 3 Zrotation Yrotation Xrotation
						JOINT LeftShoulder
						{
							OFFSET 4.392200 8.824978 0.174984
							CHANNELS 3 Zrotation Yrotation Xrotation
							JOINT LeftArm
							{
								OFFSET 8.771219 -2.981674 -0.026999
								CHANNELS 3 Zrotation Yrotation Xrotation
								JOINT LeftForeArm
								{
									OFFSET 8.512804 0.000000 -0.000000
									CHANNELS 3 Zrotation Yrotation Xrotation
									JOINT LeftHand
									{
										OFFSET 18.484802 0.000000 -0.000000
										CHANNELS 3 Zrotation Yrotation Xrotation
										End Site
										{
											OFFSET 0.000000 0.000000 0.000000
										}
									}
								}
							}
						}
					}
					JOINT RightShoulder_virtual
					{
						OFFSET 0.000000 0.000000 0.000000
						CHANNELS 3 Zrotation Yrotation Xrotation
						JOINT RightShoulder
						{
							OFFSET -4.392200 8.824993 0.141379
							CHANNELS 3 Zrotation Yrotation Xrotation
							JOINT RightArm
							{
								OFFSET -8.771282 -2.981682 -0.094208
								CHANNELS 3 Zrotation Yrotation Xrotation
								JOINT RightForeArm
								{
									OFFSET -8.494598 0.000000 0.000000
									CHANNELS 3 Zrotation Yrotation Xrotation
									JOINT RightHand
									{
										OFFSET -18.483803 0.000000 0.000001
										CHANNELS 3 Zrotation Yrotation Xrotation
										End Site
										{
											OFFSET 0.000000 0.000000 0.000000
										}
									}
								}
							}
						}
					}
				}
			}
		}
	}
}
MOTION
Frames: 14
Frame Time: 0.033333
1.596060 35.948551 36.557728 -179.864535 1.402755 179.634808 -2.712399 -4.200967 10.564106 -12.023506 -4.797174 -18.821167 12.969186 8.601615 14.831344 4.347504 0.328007 8.610580 0.000000 0.000000 0.000000 2.478073 -3.533344 8.185826 1.653325 -0.070613 -19.804036 -5.911589 5.325954 16.310430 5.018978 3.007450 8.377098 0.000000 0.000000 0.000000 0.573363 -1.002455 0.707413 -2.183132 2.983509 -10.157916 0.366046 -2.692103 3.996155 0.003338 0.033530 -0.050518 0.388508 -1.241932 4.585321 0.213903 4.011530 22.014600 0.000000 0.000000 0.000000 1.925954 -0.452012 1.185443 -8.115896 1.489332 -7.445424 -12.583234 11.459951 -45.237142 -4.388589 -70.693018 2.474681 0.000000 0.000000 0.000000 -1.963496 0.354492 0.845846 18.614842 -3.309209 -15.262819 15.891233 -12.932054 -41.321897 -5.300282 62.764814 -6.012442 0.000000 0.000000 0.000000 
1.598498 35.938850 36.486668 -179.862609 1.514139 179.518982 -2.808756 -4.072341 10.496247 -11.939157 -4.526144 -18.705187 13.153647 9.131843 14.709446 4.865084 0.677323 8.511865 0.000000 0.000000 0.000000 2.664715 -3.500146 8.002204 1.323804 0.196547 -19.848572 -6.043819 6.545941 16.013741 5.099143 3.073408 8.244691 0.000000 0.000000 0.000000 0.567357 -1.047479 0.629865 -2.157398 2.965656 -10.059091 0.365728 -2.683029 4.004922 0.010977 0.087387 -0.109731 0.361849 -1.215040 4.601142 0.173133 4.001892 22.029638 0.000000 0.000000 0.000000 1.968651 -0.422547 1.173202 -8.040179 1.462660 -7.532020 -12.429060 11.275857 -45.445077 -4.451044 -71.298282 2.542924 0.000000 0.000000 0.000000 -1.990584 0.350017 0.863256 18.591439 -3.304076 -15.377199 15.795193 -12.810868 -41.333778 -5.239097 63.441966 -5.969763 0.000000 0.000000 0.000000 
1.596316 35.935226 36.407467 -179.873414 1.488258 179.562354 -2.813806 -4.008656 10.464325 -11.901209 -4.575465 -18.543043 12.927666 8.988812 14.743692 5.044726 0.659743 8.348995 0.000000 0.000000 0.000000 2.609207 -3.482086 8.004185 1.357581 0.286122 -19.738530 -6.027439 6.656926 16.000936 5.008886 2.957039 8.250752 0.000000 0.000000 0.000000 0.557578 -1.035321 0.468020 -2.124267 2.864636 -10.030808 0.379829 -2.689547 4.051364 -0.007630 0.051024 -0.121353 0.388199 -1.218228 4.621841 0.155108 4.031302 22.010920 0.000000 0.000000 0.000000 1.999334 -0.394268 1.159126 -8.045226 1.461776 -7.518916 -12.323643 11.262105 -45.625097 -4.693318 -72.544027 2.809635 0.000000 0.000000 0.000000 -1.965954 0.355331 0.918561 18.598749 -3.256499 -15.460451 15.503544 -12.766097 -41.196764 -5.268191 64.892043 -6.054072 0.000000 0.000000 0.000000 
1.587590 35.930027 36.342876 -179.889520 1.366703 179.579580 -2.804526 -3.960956 10.468221 -11.845858 -4.675595 -18.444757 12.651950 8.840981 14.796457 5.280341 0.592796 8.222491 0.000000 0.000000 0.000000 2.556920 -3.454790 8.048902 1.386689 0.434934 -19.653557 -6.026884 6.880952 16.024186 4.833014 2.735568 8.229217 0.000000 0.000000 0.000000 0.546430 -1.049195 0.366516 -2.081312 2.708255 -10.035312 0.422473 -2.695768 4.082629 0.027761 0.007690 -0.045655 0.425891 -1.200042 4.692227 0.171298 4.104048 22.209752 0.000000 0.000000 0.000000 2.020570 -0.346712 1.133102 -8.121891 1.510206 -7.486987 -12.218605 11.375622 -45.602479 -5.179507 -74.135515 3.332836 0.000000 0.000000 0.000000 -1.977772 0.417710 0.929874 18.571774 -3.214883 -15.395520 15.264359 -12.723068 -41.007401 -5.699469 66.836522 -6.568140 0.000000 0.000000 0.000000 
1.585751 35.920990 36.301403 -179.991016 1.185772 179.589565 -2.830140 -3.934358 10.494849 -11.772231 -4.746521 -18.442050 12.305881 8.501874 14.824108 5.644911 0.531021 8.140751 0.000000 0.000000 0.000000 2.420263 -3.424548 8.127895 1.419819 0.734188 -19.631564 -6.028024 6.888793 16.115638 4.616493 2.489946 8.164258 0.000000 0.000000 0.000000 0.478676 -0.888001 0.335882 -2.071680 2.531476 -10.056284 0.430631 -2.726558 4.062938 -0.012708 -0.031169 -0.032280 0.535202 -1.223316 4.677501 0.103591 4.152235 22.284554 0.000000 0.000000 0.000000 2.150741 -0.448992 1.161446 -8.303561 1.414944 -7.512703 -12.088751 11.535045 -45.430597 -5.358808 -75.780990 3.572634 0.000000 0.000000 0.000000 -1.837052 0.419330 0.858432 18.584649 -3.207399 -15.294339 14.905505 -12.836102 -40.802625 -5.874484 68.887765 -6.833045 0.000000 0.000000 0.000000 
1.592696 35.911121 36.275139 -179.981386 1.048484 179.601067 -2.787400 -3.850757 10.527146 -11.626485 -4.909211 -18.472276 11.927845 8.474351 14.821953 6.029687 0.369213 8.075666 0.000000 0.000000 0.000000 2.401225 -3.361338 8.211631 1.481502 0.861066 -19.693474 -6.044163 6.992272 16.238520 4.464796 2.361767 8.092847 0.000000 0.000000 0.000000 0.466530 -0.973752 0.349410 -1.983940 2.436319 -10.133009 0.480386 -2.653243 4.087433 -0.008532 0.029562 -0.062776 0.588259 -1.201341 4.721771 0.061521 4.228836 22.347699 0.000000 0.000000 0.000000 2.194117 -0.419746 1.277605 -8.497939 1.366308 -7.670808 -11.935772 11.685855 -44.886176 -6.521065 -77.120677 4.804102 0.000000 0.000000 0.000000 -1.800695 0.410255 0.887192 18.612064 -3.164336 -15.373359 14.617346 -12.853478 -40.379593 -6.340397 70.842312 -7.425030 0.000000 0.000000 0.000000 
1.608432 35.900326 36.247910 179.986509 0.929864 179.621408 -2.799511 -3.758346 10.582824 -11.443381 -5.113428 -18.550563 11.598154 8.405180 14.828259 6.501290 0.204645 8.031205 0.000000 0.000000 0.000000 2.342722 -3.279136 8.294659 1.586559 0.679785 -19.790309 -6.032789 7.034600 16.406282 4.408445 2.318086 7.966880 0.000000 0.000000 0.000000 0.394173 -0.921022 0.357782 -1.883385 2.322994 -10.262983 0.507065 -2.611763 4.156256 -0.011107 0.055674 -0.043809 0.634246 -1.182809 4.674451 -0.003498 4.287045 22.341084 0.000000 0.000000 0.000000 2.226802 -0.421323 1.271786 -8.723993 1.276227 -7.680486 -11.691369 11.812171 -44.180928 -7.475569 -78.066501 5.832498 0.000000 0.000000 0.000000 -1.778302 0.417456 0.773624 18.664142 -3.085914 -15.199867 14.323340 -12.920355 -40.051837 -6.676810 72.491981 -7.860452 0.000000 0.000000 0.000000 
1.631141 35.889889 36.225021 -179.954256 0.711764 179.624864 -2.743252 -3.779714 10.642674 -11.222742 -5.375282 -18.656216 11.299451 8.283626 14.906736 6.954350 -0.019910 7.910361 0.000000 0.000000 0.000000 2.382298 -3.328250 8.387830 1.649216 0.609858 -19.845996 -6.001516 6.995066 16.580441 4.311620 2.247825 7.790291 0.000000 0.000000 0.000000 0.367498 -0.938532 0.451769 -1.706467 2.205837 -10.385920 0.554252 -2.605631 4.155260 0.007920 0.035855 -0.049859 0.657811 -1.144314 4.655897 -0.076745 4.344796 22.376666 0.000000 0.000000 0.000000 2.203108 -0.398583 1.281710 -8.967735 1.184981 -7.665844 -11.340645 11.883587 -43.612117 -7.348220 -78.509350 5.765625 0.000000 0.000000 0.000000 -1.787402 0.452818 0.789377 18.704722 -2.927289 -15.331056 14.221318 -12.988879 -39.711748 -6.814352 73.854098 -8.108415 0.000000 0.000000 0.000000 
1.646819 35.883625 36.200752 -179.940241 0.656840 179.643551 -2.752678 -3.726756 10.700763 -11.058899 -5.478432 -18.750319 11.056071 8.147948 14.961912 7.400903 -0.173092 7.794002 0.000000 0.000000 0.000000 2.399870 -3.314615 8.445500 1.729364 0.234111 -19.883645 -5.906834 7.220157 16.718864 4.302092 2.229882 7.565302 0.000000 0.000000 0.000000 0.304238 -0.926750 0.546653 -1.549767 2.166445 -10.541534 0.575449 -2.575941 4.157310 -0.095252 0.037960 -0.051151 0.695267 -1.099457 4.644780 -0.179499 4.365690 22.349304 0.000000 0.000000 0.000000 2.267300 -0.339726 1.294890 -9.136838 1.129033 -7.718728 -10.938803 11.967940 -42.987377 -7.539745 -78.511317 6.003928 0.000000 0.000000 0.000000 -1.729231 0.419831 0.834568 18.820453 -2.684849 -15.397031 14.250140 -13.044937 -39.569458 -7.313961 74.885402 -8.717031 0.000000 0.000000 0.000000 
1.659118 35.878605 36.179577 -179.961660 0.582392 179.601231 -2.794699 -3.724671 10.775121 -10.947344 -5.527666 -18.782945 10.850492 8.009195 14.978451 7.767454 -0.343666 7.669265 0.000000 0.000000 0.000000 2.363276 -3.411871 8.513025 1.645469 0.420076 -19.861213 -5.889536 6.875587 16.751758 4.377000 2.251582 7.394833 0.000000 0.000000 0.000000 0.228911 -0.973631 0.678662 -1.408279 2.159051 -10.647093 0.563404 -2.540519 4.143211 0.026618 0.046528 -0.086762 0.621529 -0.991212 4.643367 -0.272488 4.402617 22.381048 0.000000 0.000000 0.000000 2.167353 -0.236251 1.302967 -9.303500 1.066093 -7.678461 -10.492677 11.921918 -42.271819 -8.183983 -78.273763 6.696300 0.000000 0.000000 0.000000 -1.839782 0.572661 0.869480 18.904471 -2.590204 -15.398108 14.307806 -13.169187 -39.429801 -7.501668 75.815947 -8.982178 0.000000 0.000000 0.000000 
1.666696 35.877254 36.161289 179.966441 0.469333 179.578787 -2.888590 -3.757897 10.822377 -10.897401 -5.441287 -18.776945 10.675184 7.865233 14.895616 8.017334 -0.531649 7.589138 0.000000 0.000000 0.000000 2.271657 -3.459192 8.602956 1.545217 0.580459 -19.792956 -5.954715 6.147340 16.725180 4.584496 2.352538 7.269884 0.000000 0.000000 0.000000 0.117391 -0.927463 0.781478 -1.303890 2.109605 -10.749559 0.542462 -2.561188 4.151165 -0.007843 0.003466 -0.084860 0.680368 -1.037834 4.623538 -0.395855 4.384714 22.406799 0.000000 0.000000 0.000000 2.245662 -0.174646 1.272146 -9.449749 1.018251 -7.661591 -10.073623 11.929541 -41.664536 -8.347573 -77.878438 6.895047 0.000000 0.000000 0.000000 -1.780550 0.647013 0.827266 18.954931 -2.433435 -15.362204 14.383157 -13.394441 -39.242623 -7.889405 76.661278 -9.416320 0.000000 0.000000 0.000000 
1.678799 35.879852 36.143734 179.984801 0.462759 179.588350 -2.860985 -3.683939 10.829286 -10.877556 -5.296958 -18.698580 10.545936 7.787161 14.716908 8.140370 -0.697980 7.566184 0.000000 0.000000 0.000000 2.280414 -3.394507 8.671553 1.510641 0.641404 -19.720549 -6.009308 5.701765 16.619957 4.730082 2.409443 7.216674 0.000000 0.000000 0.000000 0.070884 -0.816006 0.853485 -1.190251 2.145181 -10.853913 0.554707 -2.513047 4.161707 -0.008573 0.055782 -0.067965 0.688792 -1.018241 4.568652 -0.524643 4.350587 22.418144 0.000000 0.000000 0.000000 2.233367 -0.239339 1.311238 -9.570421 0.724157 -7.611085 -9.732396 11.932827 -41.231827 -7.669864 -77.510052 6.240002 0.000000 0.000000 0.000000 -1.783872 0.562987 0.775843 18.974539 -2.422325 -15.209868 14.456324 -13.621147 -39.028838 -8.760220 77.395360 -10.305441 0.000000 0.000000 0.000000 
1.693064 35.885979 36.129963 -179.947235 0.433750 179.571766 -2.798639 -3.601015 10.806468 -10.877575 -5.135828 -18.577070 10.478672 7.680362 14.525669 8.134189 -0.763148 7.568837 0.000000 0.000000 0.000000 2.331423 -3.292758 8.731112 1.495571 0.586066 -19.619047 -6.095494 5.335027 16.500175 4.872112 2.477655 7.214199 0.000000 0.000000 0.000000 0.085910 -0.737882 0.890738 -1.065483 2.110547 -10.884923 0.560874 -2.539952 4.160019 -0.003475 0.033678 -0.096692 0.682032 -1.014121 4.595548 -0.670102 4.288839 22.457525 0.000000 0.000000 0.000000 2.232763 -0.230060 1.382313 -9.692506 0.807440 -7.693848 -9.420556 11.744912 -40.512997 -8.457215 -77.239222 7.063015 0.000000 0.000000 0.000000 -1.809265 0.588702 0.772521 18.961625 -2.207850 -15.136673 14.375755 -13.916328 -38.629436 -9.026793 78.136497 -10.544809 0.000000 0.000000 0.000000 
1.708237 35.892349 36.122620 -179.978818 0.502796 179.554444 -2.815522 -3.505328 10.769882 -10.908769 -4.968204 -18.428689 10.487510 7.647677 14.363900 8.081347 -0.842626 7.585856 0.000000 0.000000 0.000000 2.299272 -3.204661 8.723907 1.513392 0.638601 -19.506961 -6.125385 5.216115 16.414681 4.882102 2.462928 7.222385 0.000000 0.000000 0.000000 0.043479 -0.625486 0.863423 -1.005173 2.131325 -10.838101 0.548331 -2.540074 4.182535 -0.008383 0.058930 -0.049799 0.688294 -1.062646 4.543456 -0.782554 4.236979 22.509592 0.000000 0.000000 0.000000 2.246421 -0.326986 1.349024 -9.754965 0.725616 -7.561137 -9.256581 11.686337 -40.016221 -8.348263 -77.083227 6.990205 0.000000 0.000000 0.000000 -1.798719 0.533920 0.705216 18.947713 -1.973197 -14.934929 14.199463 -14.229918 -38.273344 -9.597132 78.675679 -11.053228 0.000000 0.000000 0.000000 
